<svg width="573" height="452" viewBox="0 0 573 452" fill="none" xmlns="http://www.w3.org/2000/svg">
<path d="M57.4403 317.865C30.9772 278.346 9.68242 230.791 19.8228 184.291C29.6361 139.14 73.5014 101.037 117.792 91.2233C128.718 89.2137 139.83 88.4185 150.928 88.8522L312.847 89.0498L276.374 156.924L167.742 157.517C154.363 157.517 140.624 157.714 128.095 162.49C119.432 165.784 111.706 171.172 105.597 178.181C99.4882 185.189 95.1844 193.601 93.0647 202.678C90.9449 211.755 91.0742 221.216 93.441 230.231C95.8079 239.245 100.34 247.535 106.637 254.372L57.4403 317.865Z" fill="#5A5B5F"/>
<path d="M95.385 451.934L148.704 384.159H443.364C443.364 384.159 519.123 358.735 477.023 285.361L510.682 220.385C510.682 220.385 589.189 271.233 558.408 367.297C558.408 367.297 547.22 426.576 455.074 451.901C454.738 451.95 454.396 451.95 454.06 451.901L95.385 451.934Z" fill="#5A5B5F"/>
<path d="M67.3517 452H0L193.616 180.8H255.342L244.121 279.697H252.561L353.573 87.5679H426.517L398.452 274.032H406.891L507.902 59.3446L482.65 50.8479L561.221 0L572.441 87.5679L547.188 73.4397L426.517 344.673H336.727L359.165 186.465H353.573L272.188 350.304H193.616L199.242 265.569H188.022L67.3517 452Z" fill="#4e4eff"/>
</svg>
